# xmcd CD database file
#
# Track frame offsets:
#	225
#	52200
#	121875
#	135865
#	163575
#	192450
#	236400
#
# Disc length: 3619 seconds
#
# Revision: 0
# Processed by: cddbd v1.5.1PL0 Copyright (c) Steve Scherf et al.
# Submitted via: CDex 1.51
#
DISCID=5b0e2007
DTITLE=Deep Purple - Parlez-Vous Purple Disc 1
DYEAR=1900
DGENRE=Hard Rock
TTITLE0=Highway Star
TTITLE1=Nobody's Home
TTITLE2=Strange Kind Of Woman
TTITLE3=Blues-A Gypsy's Kiss
TTITLE4=Perfect Stranger
TTITLE5=Under The Gun
TTITLE6=Knocking At Your Backdoor
EXTD=
EXTT0=
EXTT1=
EXTT2=
EXTT3=
EXTT4=
EXTT5=
EXTT6=
PLAYORDER=
